<svg width="1109" height="582" xmlns="http://www.w3.org/2000/svg" xmlns:xlink="http://www.w3.org/1999/xlink" xml:space="preserve" overflow="hidden"><g transform="translate(-1737 -875)"><g><path d="M1749 1015.5 1814.25 885 2099.75 885 2165 1015.5 2099.75 1146 1814.25 1146Z" stroke="#E3B155" stroke-width="13.75" stroke-linecap="butt" stroke-linejoin="miter" stroke-miterlimit="8" stroke-opacity="1" fill="none" fill-rule="evenodd"/><path d="M2397 1015.5 2462.25 885 2747.75 885 2813 1015.5 2747.75 1146 2462.25 1146Z" stroke="#E1AA56" stroke-width="13.75" stroke-linecap="butt" stroke-linejoin="miter" stroke-miterlimit="8" stroke-opacity="1" fill="none" fill-rule="evenodd"/><rect x="1749.5" y="1344.5" width="200" height="107" stroke="#5599E0" stroke-width="6.875" stroke-linecap="butt" stroke-linejoin="miter" stroke-miterlimit="8" stroke-opacity="1" fill="none"/><rect x="1993.5" y="1344.5" width="200" height="107" stroke="#5599E0" stroke-width="6.875" stroke-linecap="butt" stroke-linejoin="miter" stroke-miterlimit="8" stroke-opacity="1" fill="none"/><rect x="2397.5" y="1345.5" width="201" height="107" stroke="#5599E0" stroke-width="6.875" stroke-linecap="butt" stroke-linejoin="miter" stroke-miterlimit="8" stroke-opacity="1" fill="none"/><rect x="2641.5" y="1345.5" width="200" height="107" stroke="#5599E0" stroke-width="6.875" stroke-linecap="butt" stroke-linejoin="miter" stroke-miterlimit="8" stroke-opacity="1" fill="none"/><path d="M6.63064-1.81664 51.7466 162.855 38.4853 166.488-6.63064 1.81664ZM63.1913 152.591 54.1992 197.825 23.4074 163.491Z" fill="#AEAEAE" fill-rule="nonzero" fill-opacity="1" transform="matrix(1 0 0 -1 1849 1343.82)"/><path d="M2086.52 1345.91 2033.89 1180.84 2046.99 1176.66 2099.62 1341.74ZM2022.88 1191.57 2030 1146 2062.18 1179.04Z" fill="#AEAEAE" fill-rule="nonzero" fill-opacity="1"/><path d="M6.63064-1.81664 51.7466 162.855 38.4853 166.488-6.63064 1.81664ZM63.1913 152.591 54.1992 197.825 23.4074 163.491Z" fill="#AEAEAE" fill-rule="nonzero" fill-opacity="1" transform="matrix(1 0 0 -1 2493 1343.82)"/><path d="M2730.52 1345.91 2677.89 1180.84 2690.99 1176.66 2743.62 1341.74ZM2666.88 1191.57 2674 1146 2706.18 1179.04Z" fill="#AEAEAE" fill-rule="nonzero" fill-opacity="1"/><path d="M2190.78 1010.84 2371.44 1010.84 2371.44 1021.16 2190.78 1021.16ZM2195.94 1031.47 2165 1016 2195.94 1000.53ZM2366.28 1000.53 2397.22 1016 2366.28 1031.47Z" fill="#AEAEAE" fill-rule="nonzero" fill-opacity="1"/></g></g></svg>